<svg width="1718" height="1718" viewBox="0 0 1718 1718" fill="none" xmlns="http://www.w3.org/2000/svg">
<rect width="1718" height="1718" rx="859" fill="black"/>
<path fill-rule="evenodd" clip-rule="evenodd" d="M1049.43 566.624L880.976 469C831.798 528.579 794.841 596.473 771.295 668.615C900.885 695.772 1015.39 764.145 1100.52 859.556C1151 916.144 1191.12 982.184 1217.95 1054.68V664.248H1217.89L1049.49 566.624H1049.43Z" fill="white"/>
<path opacity="0.3" fill-rule="evenodd" clip-rule="evenodd" d="M829.766 541.158C830.126 540.558 830.546 539.957 830.907 539.356L829.766 541.158Z" fill="white"/>
<path fill-rule="evenodd" clip-rule="evenodd" d="M771.111 1050.2C697.076 1065.81 620.002 1067.67 544 1054.68L712.515 1152.31L881.03 1249.93L1049.49 1152.31L1218 1054.68C1191.18 982.125 1151.06 916.085 1100.57 859.557C1012.35 958.616 896.051 1023.94 771.23 1050.2H771.111Z" fill="white"/>
<path fill-rule="evenodd" clip-rule="evenodd" d="M544 664.248V1054.74C620.002 1067.72 697.076 1065.81 771.111 1050.26C729.742 924.04 731.53 790.345 771.23 668.674C794.835 596.533 831.733 528.639 880.911 469.06L712.396 566.684L544 664.248Z" fill="white"/>
</svg>
